HIERARCHY
ROOT Hips
{
  OFFSET 3.13124 94.3669 -3.18751
  CHANNELS  6 Xposition Yposition Zposition Zrotation Xrotation Yrotation
  JOINT LeftUpLeg
  {
    OFFSET 8.64259 1.95398 -2.38835
    CHANNELS 3 Zrotation Xrotation Yrotation
    JOINT LeftLeg
    {
      OFFSET 43.7702 0 0
      CHANNELS 3 Zrotation Xrotation Yrotation
      JOINT LeftFoot
      {
        OFFSET 40.6238 0 0
        CHANNELS 3 Zrotation Xrotation Yrotation
        JOINT LeftToeBase
        {
          OFFSET 12.7242 0 0
          CHANNELS 3 Zrotation Xrotation Yrotation
          End Site
          {
            OFFSET 0 0 0
          }
        }
      }
    }
  }
  JOINT RightUpLeg
  {
    OFFSET -8.2249 1.95398 -2.59336
    CHANNELS 3 Zrotation Xrotation Yrotation
    JOINT RightLeg
    {
      OFFSET 43.5653 0 0
      CHANNELS 3 Zrotation Xrotation Yrotation
      JOINT RightFoot
      {
        OFFSET 40.6238 0 0
        CHANNELS 3 Zrotation Xrotation Yrotation
        JOINT RightToeBase
        {
          OFFSET 12.7242 0 0
          CHANNELS 3 Zrotation Xrotation Yrotation
          End Site
          {
            OFFSET 0 0 0
          }
        }
      }
    }
  }
  JOINT Spine
  {
    OFFSET 0.165834 0.87714 6.61349
    CHANNELS 3 Zrotation Xrotation Yrotation
    JOINT Spine1
    {
      OFFSET 7.38962 1.71661e-005 0
      CHANNELS 3 Zrotation Xrotation Yrotation
      JOINT Spine2
      {
        OFFSET 11.9445 1.14441e-005 0
        CHANNELS 3 Zrotation Xrotation Yrotation
        JOINT Spine3
        {
          OFFSET 14.7254 4.19617e-005 0
          CHANNELS 3 Zrotation Xrotation Yrotation
          JOINT Spine4
          {
            OFFSET 10.9679 0 0
            CHANNELS 3 Zrotation Xrotation Yrotation
            JOINT RightShoulder
            {
              OFFSET 2.46616 -1.6653 3.69651
              CHANNELS 3 Zrotation Xrotation Yrotation
              JOINT RightArm
              {
                OFFSET 13.0012 0 0
                CHANNELS 3 Zrotation Xrotation Yrotation
                JOINT RightForeArm
                {
                  OFFSET 28.7848 1.52588e-005 0
                  CHANNELS 3 Zrotation Xrotation Yrotation
                  JOINT RightHand
                  {
                    OFFSET 26.5688 1.52588e-005 0
                    CHANNELS 3 Zrotation Xrotation Yrotation
                    End Site
                    {
                      OFFSET 0 0 0
                    }
                  }
                }
              }
            }
            JOINT LeftShoulder
            {
              OFFSET 2.38034 -1.29275 -3.75231
              CHANNELS 3 Zrotation Xrotation Yrotation
              JOINT LeftArm
              {
                OFFSET 16.3182 6.10352e-005 0
                CHANNELS 3 Zrotation Xrotation Yrotation
                JOINT LeftForeArm
                {
                  OFFSET 27.0901 0 0
                  CHANNELS 3 Zrotation Xrotation Yrotation
                  JOINT LeftHand
                  {
                    OFFSET 24.5451 1.52588e-005 0
                    CHANNELS 3 Zrotation Xrotation Yrotation
                    End Site
                    {
                      OFFSET 0 0 0
                    }
                  }
                }
              }
            }
            JOINT Neck
            {
              OFFSET 5.0226 -0.0266342 0
              CHANNELS 3 Zrotation Xrotation Yrotation
              JOINT Head
              {
                OFFSET 6.69363 2.86102e-005 0
                CHANNELS 3 Zrotation Xrotation Yrotation
                End Site
                {
                  OFFSET 0 0 0
                }
              }
            }
          }
        }
      }
    }
  }
}
MOTION
Frames:	9
Frame Time:	0.0333333
62.1682 82.7693 -63.8416 42.1992 -46.8728 30.8174 -164.01 63.0051 61.9834 -51.8756 -19.9727 -0.783313 69.7533 5.8908 3.10148 28.7808 4.89048e-006 -4.76629e-006 -170.842 52.9013 75.8727 -96.6213 21.1774 -0.172245 39.9207 2.534 2.96641 28.7808 1.74934e-005 2.31642e-005 0.424171 13.1708 -88.9589 0.569308 1.90529 -0.286441 -11.1004 1.89083 -0.37005 -33.6466 1.9033 0.299751 -13.6339 1.90332 0.299712 91.7355 -1.62716 -120.32 26.3624 9.99016 -54.6387 -3.088 4.49405 -4.94204 -21.5616 2.31649 -17.7259 -131.779 -53.8803 24.2817 -17.9848 -16.3829 -59.0905 2.95661 26.4613 -4.01879 2.47381 -1.1748 -29.1878 -14.6415 -20.2985 59.408 16.2828 -29.7736 -53.4443 
61.0504 83.7551 -61.9929 46.4554 -49.7467 33.9399 -169.097 57.1593 66.9797 -49.0846 -20.4009 -0.909006 69.5497 6.42586 3.37768 28.7808 4.89048e-006 -4.76629e-006 -165.165 53.3329 68.2678 -98.5944 20.8935 -0.246605 45.4016 3.69207 3.53321 28.7808 1.74934e-005 2.31642e-005 0.435498 13.0468 -88.943 0.820325 1.95745 -0.343889 -10.8493 1.94052 -0.429535 -33.3961 1.9694 0.259224 -13.3834 1.9694 0.259176 90.7863 -3.87018 -121.052 29.0017 7.3659 -54.3368 -2.86431 9.73264 -4.99903 -16.9025 1.76 -17.5373 -134.421 -55.8069 22.3874 -18.6381 -15.7191 -56.2678 2.75682 20.394 -3.81299 5.312 -1.35922 -23.0474 -17.7067 -20.5278 55.7922 14.5439 -27.172 -50.7268 
59.8023 84.8497 -59.6635 50.6101 -53.2348 37.0835 -173.041 50.631 71.2144 -46.2231 -22.6127 -1.17131 68.9916 6.26474 3.32952 28.7808 4.89048e-006 -4.76629e-006 -160.909 50.6489 61.1099 -95.6695 21.6378 -0.137665 53.3149 0.161354 0.405822 28.7808 1.74934e-005 2.31642e-005 0.520495 12.9069 -88.9102 1.099 2.07084 -0.170124 -10.5704 2.06133 -0.261099 -33.1183 2.02635 0.460114 -13.1057 2.02633 0.460104 89.7135 -6.3897 -121.739 32.0469 4.33065 -54.0219 -2.65058 14.5424 -5.06981 -14.2805 1.39147 -16.8354 -136.373 -57.4849 21.1819 -18.6546 -15.7133 -52.5456 2.59424 14.6331 -3.6446 7.63089 -1.59499 -21.4671 -22.8011 -20.7811 51.3707 14.9004 -24.8911 -47.3294 
58.3877 86.1661 -57.0762 54.242 -56.4518 40.3822 -176.168 43.9291 75.3483 -42.4932 -23.3165 -1.32347 67.9614 5.56741 3.00123 28.7808 4.89048e-006 -4.76629e-006 -158.882 47.793 55.0911 -88.3514 22.7261 0.110087 59.7794 -1.14736 -0.563057 28.7808 1.74934e-005 2.31642e-005 0.629712 12.6791 -89.015 1.55301 2.18085 -0.124232 -10.1161 2.17356 -0.220986 -32.6656 2.11565 0.541494 -12.6529 2.11566 0.541465 89.2799 -6.94578 -122.524 35.7382 0.927698 -52.5297 -2.58285 16.0181 -5.09541 -13.7844 1.45472 -17.8225 -138.657 -59.647 19.9344 -18.3853 -15.972 -48.8642 2.49864 10.843 -3.54478 8.77911 -1.76676 -21.4066 -27.5227 -20.9445 48.9603 14.2794 -22.6304 -45.2752 
56.8037 87.7699 -54.0948 58.7591 -60.4041 44.8708 -178.492 35.9594 79.297 -38.1501 -24.1745 -1.47965 65.7724 4.89055 2.69773 28.7808 4.89048e-006 -4.76629e-006 -161.688 43.8134 53.1052 -76.1763 19.8909 0.212244 65.7904 -6.07983 -3.34207 28.7808 1.74934e-005 2.31642e-005 0.702941 12.5447 -88.9732 1.81254 2.22808 0.306649 -9.85668 2.23936 0.211897 -32.4046 2.02071 0.96133 -12.3919 2.02069 0.961286 88.6439 -8.14365 -123.32 39.1684 -2.34531 -51.8945 -2.78692 11.5026 -5.02225 -12.1819 1.17376 -16.8978 -138.782 -61.5314 20.9303 -16.5411 -17.4205 -44.6224 2.52562 11.9468 -3.57298 7.91716 -1.61669 -21.1998 -31.324 -19.2733 45.952 14.4852 -19.1483 -41.7935 
54.9023 89.388 -51.3784 61.2227 -62.3473 48.1822 -179.583 30.6043 82.8606 -33.8311 -23.8528 -1.49775 61.8018 4.86412 2.7756 28.7808 4.89048e-006 -4.76629e-006 -166.425 42.1102 53.7294 -61.5469 15.9577 0.278899 68.0298 -9.62771 -5.09432 28.7808 1.74934e-005 2.31642e-005 0.519461 11.9876 -89.1747 2.91706 1.7318 0.313333 -8.75278 1.74386 0.236737 -31.2953 1.55778 0.813208 -11.2826 1.55776 0.813161 86.5626 -7.39669 -129.487 42.3099 -3.70816 -47.0889 -3.01067 6.32541 -4.95969 -12.0856 1.17157 -16.9988 -142.838 -66.0159 19.1394 -14.4905 -18.7971 -39.9363 2.55919 13.2818 -3.60799 7.4699 -1.56576 -21.4163 -36.8833 -19.2501 47.4676 16.0245 -16.9328 -40.4949 
52.1629 91.0462 -47.8741 66.5099 -65.7366 54.7064 -179.871 23.8593 87.4651 -30.5205 -22.3959 -1.36215 56.5747 4.87541 2.92801 28.7808 4.89048e-006 -4.76629e-006 -173.179 38.406 59.3182 -47.8182 11.0239 0.217782 64.9314 -10.8341 -6.02551 28.7808 1.74934e-005 2.31642e-005 0.709723 12.1094 -89.4537 2.67096 1.90131 0.149697 -8.99866 1.90645 0.0662488 -31.5436 1.76552 0.711358 -11.531 1.76552 0.711337 88.2231 -3.77569 -129.138 45.3314 -6.9657 -47.7092 -3.15641 2.86935 -4.92778 -12.3532 1.27802 -17.8399 -143.517 -68.5049 19.8976 -14.1512 -18.9821 -39.0214 2.5335 12.2623 -3.58118 8.21576 -1.77033 -22.2113 -33.8423 -17.5483 51.9937 11.3824 -14.1384 -43.3454 
48.7175 91.8979 -44.0831 74.5072 -67.4654 65.5767 -179.242 21.4549 93.9568 -33.8866 -17.6761 -0.877589 50.8732 5.88165 3.81228 28.7808 4.89048e-006 -4.76629e-006 -177.725 33.7614 66.8649 -40.7574 10.938 0.336616 56.6104 -11.3096 -7.15898 28.7808 1.74934e-005 2.31642e-005 0.584754 9.63904 -89.7435 7.60589 1.38361 -0.109153 -4.06436 1.37843 -0.170191 -26.6052 1.34588 0.313476 -6.59258 1.34586 0.313487 64.0942 -29.9716 -152.694 40.3919 5.70928 -20.0452 -4.08324 -19.2499 -4.94249 -9.18401 1.10961 -20.1311 -174.017 -72.5998 -8.67599 -1.2676 -23.3951 -14.5497 2.51033 11.3249 -3.55701 13.75 -2.61134 -22.2709 -68.3588 -20.0014 32.5979 26.3448 -10.5039 -24.6316 
44.9688 92.2453 -40.0584 83.2996 -66.836 77.1473 -179.249 21.6236 100.72 -38.6558 -12.6966 -0.432432 42.4169 7.98246 5.98199 28.7808 4.89048e-006 -4.76629e-006 -179.315 29.0062 73.7842 -41.2382 11.8295 0.391692 54.3086 -10.7539 -7.11306 28.7808 1.74934e-005 2.31642e-005 1.11294 10.7759 -90.2833 5.3307 2.15521 -0.691718 -6.3387 2.12268 -0.785939 -28.8887 2.26342 -0.0116747 -8.87611 2.2634 -0.0116924 77.4743 -17.7143 -140.409 46.794 -1.98143 -32.2868 -3.87139 -14.3704 -4.90789 -6.8569 0.807685 -20.3268 -155.635 -71.1235 8.73049 -7.02433 -21.9546 -23.3545 2.48094 10.1039 -3.52628 15.9352 -2.24089 -17.6459 -54.9597 -18.1204 37.3806 18.9859 -11.1893 -32.4282 
